<svg width="400" height="64" viewBox="0 0 400 64" fill="none" xmlns="http://www.w3.org/2000/svg">
<rect width="400" height="64" rx="4" fill="#9D9D9D"/>
<path d="M120.643 24H102.357C101.726 24 101.214 24.5117 101.214 25.1429V38.8571C101.214 39.4883 101.726 40 102.357 40H120.643C121.274 40 121.786 39.4883 121.786 38.8571V25.1429C121.786 24.5117 121.274 24 120.643 24Z" stroke="white" stroke-width="2" stroke-linecap="round"/>
<path d="M101.214 25.7144L111.5 32.0001L121.786 25.7144" stroke="white" stroke-width="2" stroke-linecap="round"/>
<path d="M139.037 38.5H140.945V33.442C140.945 32.674 141.056 32.062 141.278 31.606C141.506 31.144 141.806 30.811 142.178 30.607C142.55 30.403 142.961 30.301 143.411 30.301C143.927 30.301 144.347 30.406 144.671 30.616C144.995 30.826 145.244 31.102 145.418 31.444C145.592 31.786 145.709 32.158 145.769 32.56C145.835 32.956 145.868 33.343 145.868 33.721V38.5H147.776V33.1C147.776 32.8 147.749 32.452 147.695 32.056C147.641 31.66 147.539 31.255 147.389 30.841C147.239 30.427 147.02 30.046 146.732 29.698C146.45 29.344 146.081 29.059 145.625 28.843C145.169 28.627 144.605 28.519 143.933 28.519C143.231 28.519 142.607 28.645 142.061 28.897C141.521 29.149 141.074 29.497 140.72 29.941V25.54H139.037V38.5ZM150.3 27.187H152.181V25.36H150.3V27.187ZM150.3 38.5H152.181V28.78H150.3V38.5ZM161.805 40.39C162.327 40.39 162.84 40.336 163.344 40.228C163.854 40.126 164.34 39.967 164.802 39.751L164.289 38.347C163.563 38.701 162.762 38.878 161.886 38.878C160.884 38.878 159.993 38.671 159.213 38.257C158.439 37.843 157.827 37.258 157.377 36.502C156.933 35.74 156.699 34.84 156.675 33.802C156.651 32.752 156.843 31.822 157.251 31.012C157.659 30.202 158.256 29.566 159.042 29.104C159.828 28.636 160.779 28.402 161.895 28.402C162.489 28.402 163.086 28.492 163.686 28.672C164.286 28.846 164.835 29.128 165.333 29.518C165.837 29.908 166.236 30.424 166.53 31.066C166.824 31.702 166.962 32.485 166.944 33.415C166.932 34.009 166.845 34.498 166.683 34.882C166.527 35.266 166.212 35.458 165.738 35.458C165.024 35.458 164.667 34.993 164.667 34.063L164.694 30.832H163.488V31.156C163.236 30.97 162.942 30.829 162.606 30.733C162.27 30.631 161.952 30.58 161.652 30.58C161.07 30.58 160.542 30.709 160.068 30.967C159.6 31.219 159.228 31.582 158.952 32.056C158.676 32.524 158.538 33.082 158.538 33.73C158.538 34.354 158.667 34.903 158.925 35.377C159.189 35.845 159.552 36.211 160.014 36.475C160.482 36.739 161.019 36.871 161.625 36.871C161.997 36.871 162.36 36.811 162.714 36.691C163.074 36.565 163.386 36.349 163.65 36.043C163.866 36.349 164.157 36.583 164.523 36.745C164.895 36.901 165.291 36.979 165.711 36.979C166.671 36.979 167.379 36.67 167.835 36.052C168.291 35.428 168.534 34.534 168.564 33.37C168.588 32.524 168.462 31.714 168.186 30.94C167.91 30.16 167.487 29.467 166.917 28.861C166.347 28.249 165.633 27.769 164.775 27.421C163.917 27.067 162.918 26.89 161.778 26.89C160.536 26.89 159.405 27.16 158.385 27.7C157.371 28.234 156.564 29.02 155.964 30.058C155.364 31.09 155.064 32.353 155.064 33.847C155.064 34.789 155.229 35.659 155.559 36.457C155.889 37.249 156.357 37.939 156.963 38.527C157.569 39.115 158.283 39.571 159.105 39.895C159.927 40.225 160.827 40.39 161.805 40.39ZM161.733 35.341C161.229 35.341 160.839 35.2 160.563 34.918C160.287 34.63 160.149 34.231 160.149 33.721C160.149 33.223 160.284 32.83 160.554 32.542C160.824 32.248 161.232 32.101 161.778 32.101C162.24 32.101 162.597 32.239 162.849 32.515C163.107 32.785 163.236 33.187 163.236 33.721C163.236 34.309 163.092 34.726 162.804 34.972C162.516 35.218 162.159 35.341 161.733 35.341ZM172.58 42.82H174.371L179.735 28.78H177.827L175.082 36.088L172.211 28.78H170.249L174.182 38.455L172.58 42.82ZM185.015 38.77C185.981 38.77 186.821 38.554 187.535 38.122C188.249 37.684 188.801 37.081 189.191 36.313C189.587 35.539 189.785 34.645 189.785 33.631C189.785 32.629 189.59 31.744 189.2 30.976C188.81 30.202 188.258 29.599 187.544 29.167C186.83 28.729 185.987 28.51 185.015 28.51C184.061 28.51 183.227 28.726 182.513 29.158C181.799 29.59 181.244 30.19 180.848 30.958C180.452 31.726 180.254 32.617 180.254 33.631C180.254 34.633 180.449 35.521 180.839 36.295C181.229 37.069 181.778 37.675 182.486 38.113C183.2 38.551 184.043 38.77 185.015 38.77ZM185.015 36.997C184.109 36.997 183.422 36.694 182.954 36.088C182.486 35.476 182.252 34.657 182.252 33.631C182.252 32.641 182.477 31.837 182.927 31.219C183.377 30.595 184.073 30.283 185.015 30.283C185.933 30.283 186.623 30.586 187.085 31.192C187.553 31.798 187.787 32.611 187.787 33.631C187.787 34.627 187.556 35.437 187.094 36.061C186.638 36.685 185.945 36.997 185.015 36.997ZM195.426 38.761C196.128 38.761 196.749 38.635 197.289 38.383C197.835 38.131 198.285 37.783 198.639 37.339V38.5H200.313V28.78H198.414V33.838C198.414 34.606 198.303 35.221 198.081 35.683C197.859 36.139 197.559 36.469 197.181 36.673C196.809 36.877 196.398 36.979 195.948 36.979C195.432 36.979 195.012 36.874 194.688 36.664C194.364 36.454 194.115 36.178 193.941 35.836C193.767 35.494 193.647 35.125 193.581 34.729C193.521 34.327 193.491 33.937 193.491 33.559V28.78H191.583V34.18C191.583 34.48 191.61 34.828 191.664 35.224C191.718 35.62 191.82 36.025 191.97 36.439C192.12 36.853 192.336 37.237 192.618 37.591C192.906 37.939 193.278 38.221 193.734 38.437C194.19 38.653 194.754 38.761 195.426 38.761ZM202.837 38.5H204.736V33.595C204.736 33.025 204.826 32.497 205.006 32.011C205.186 31.525 205.504 31.135 205.96 30.841C206.284 30.631 206.641 30.508 207.031 30.472C207.421 30.436 207.772 30.46 208.084 30.544V28.78C207.646 28.696 207.181 28.699 206.689 28.789C206.203 28.879 205.777 29.059 205.411 29.329C205.051 29.569 204.751 29.902 204.511 30.328V28.78H202.837V38.5ZM209.789 38.5H211.697V33.442C211.697 32.674 211.808 32.062 212.03 31.606C212.258 31.144 212.558 30.811 212.93 30.607C213.302 30.403 213.713 30.301 214.163 30.301C214.679 30.301 215.099 30.406 215.423 30.616C215.747 30.826 215.996 31.102 216.17 31.444C216.344 31.786 216.461 32.158 216.521 32.56C216.587 32.956 216.62 33.343 216.62 33.721V38.5H218.528V33.1C218.528 32.8 218.501 32.452 218.447 32.056C218.393 31.66 218.291 31.255 218.141 30.841C217.991 30.427 217.772 30.046 217.484 29.698C217.202 29.344 216.833 29.059 216.377 28.843C215.921 28.627 215.357 28.519 214.685 28.519C213.983 28.519 213.359 28.645 212.813 28.897C212.273 29.149 211.826 29.497 211.472 29.941V28.78H209.789V38.5ZM223.617 38.77C225.165 38.77 226.332 38.209 227.118 37.087V38.5H228.783V32.515C228.783 32.107 228.765 31.726 228.729 31.372C228.693 31.018 228.597 30.682 228.441 30.364C228.141 29.722 227.667 29.254 227.019 28.96C226.377 28.66 225.621 28.51 224.751 28.51C223.629 28.51 222.729 28.756 222.051 29.248C221.373 29.74 220.917 30.403 220.683 31.237L222.438 31.777C222.606 31.237 222.903 30.847 223.329 30.607C223.755 30.367 224.223 30.247 224.733 30.247C225.489 30.247 226.035 30.409 226.371 30.733C226.713 31.051 226.899 31.546 226.929 32.218C226.137 32.326 225.363 32.44 224.607 32.56C223.851 32.674 223.191 32.812 222.627 32.974C221.877 33.214 221.307 33.571 220.917 34.045C220.527 34.519 220.332 35.122 220.332 35.854C220.332 36.382 220.455 36.868 220.701 37.312C220.953 37.75 221.322 38.104 221.808 38.374C222.3 38.638 222.903 38.77 223.617 38.77ZM223.95 37.231C223.35 37.231 222.906 37.093 222.618 36.817C222.336 36.541 222.195 36.214 222.195 35.836C222.195 35.452 222.321 35.149 222.573 34.927C222.831 34.705 223.152 34.528 223.536 34.396C223.944 34.276 224.424 34.171 224.976 34.081C225.534 33.991 226.179 33.892 226.911 33.784C226.905 34.012 226.89 34.267 226.866 34.549C226.842 34.831 226.791 35.083 226.713 35.305C226.641 35.623 226.488 35.929 226.254 36.223C226.026 36.517 225.717 36.76 225.327 36.952C224.943 37.138 224.484 37.231 223.95 37.231ZM231.111 38.5H233.001V32.425C233.001 31.765 233.181 31.231 233.541 30.823C233.907 30.415 234.387 30.211 234.981 30.211C235.581 30.211 236.058 30.415 236.412 30.823C236.772 31.225 236.952 31.777 236.952 32.479L236.943 38.5H238.824L238.833 32.425C238.833 31.693 239.028 31.141 239.418 30.769C239.814 30.397 240.279 30.211 240.813 30.211C241.401 30.211 241.875 30.409 242.235 30.805C242.595 31.201 242.775 31.747 242.775 32.443L242.766 38.5H244.647L244.656 31.993C244.656 30.949 244.365 30.112 243.783 29.482C243.207 28.852 242.397 28.537 241.353 28.537C240.717 28.537 240.141 28.678 239.625 28.96C239.109 29.236 238.701 29.62 238.401 30.112C238.143 29.62 237.774 29.236 237.294 28.96C236.82 28.678 236.247 28.537 235.575 28.537C234.993 28.537 234.459 28.654 233.973 28.888C233.493 29.116 233.097 29.428 232.785 29.824V28.78H231.111V38.5ZM251.181 38.77C252.123 38.77 252.978 38.533 253.746 38.059C254.514 37.579 255.087 36.904 255.465 36.034L253.62 35.449C253.128 36.481 252.285 36.997 251.091 36.997C250.275 36.997 249.633 36.751 249.165 36.259C248.697 35.767 248.424 35.071 248.346 34.171H255.591C255.657 33.007 255.519 32.002 255.177 31.156C254.835 30.31 254.316 29.659 253.62 29.203C252.924 28.741 252.081 28.51 251.091 28.51C250.143 28.51 249.312 28.723 248.598 29.149C247.884 29.575 247.326 30.178 246.924 30.958C246.528 31.738 246.33 32.659 246.33 33.721C246.33 34.723 246.531 35.605 246.933 36.367C247.341 37.123 247.908 37.714 248.634 38.14C249.366 38.56 250.215 38.77 251.181 38.77ZM251.163 30.175C252.633 30.175 253.467 31.018 253.665 32.704H248.391C248.511 31.882 248.802 31.255 249.264 30.823C249.726 30.391 250.359 30.175 251.163 30.175ZM257.583 38.5H259.572V36.511H257.583V38.5ZM266.567 38.77C267.611 38.77 268.499 38.518 269.231 38.014C269.963 37.51 270.488 36.781 270.806 35.827L268.898 35.377C268.7 35.899 268.412 36.301 268.034 36.583C267.662 36.859 267.173 36.997 266.567 36.997C265.679 36.997 265.007 36.688 264.551 36.07C264.101 35.452 263.873 34.642 263.867 33.64C263.873 32.668 264.092 31.867 264.524 31.237C264.962 30.601 265.643 30.283 266.567 30.283C267.113 30.283 267.596 30.436 268.016 30.742C268.442 31.042 268.748 31.465 268.934 32.011L270.806 31.471C270.566 30.559 270.068 29.839 269.312 29.311C268.562 28.777 267.656 28.51 266.594 28.51C265.616 28.51 264.773 28.729 264.065 29.167C263.363 29.605 262.823 30.211 262.445 30.985C262.067 31.753 261.875 32.638 261.869 33.64C261.875 34.624 262.061 35.503 262.427 36.277C262.799 37.051 263.333 37.66 264.029 38.104C264.731 38.548 265.577 38.77 266.567 38.77ZM276.597 38.77C277.563 38.77 278.403 38.554 279.117 38.122C279.831 37.684 280.383 37.081 280.773 36.313C281.169 35.539 281.367 34.645 281.367 33.631C281.367 32.629 281.172 31.744 280.782 30.976C280.392 30.202 279.84 29.599 279.126 29.167C278.412 28.729 277.569 28.51 276.597 28.51C275.643 28.51 274.809 28.726 274.095 29.158C273.381 29.59 272.826 30.19 272.43 30.958C272.034 31.726 271.836 32.617 271.836 33.631C271.836 34.633 272.031 35.521 272.421 36.295C272.811 37.069 273.36 37.675 274.068 38.113C274.782 38.551 275.625 38.77 276.597 38.77ZM276.597 36.997C275.691 36.997 275.004 36.694 274.536 36.088C274.068 35.476 273.834 34.657 273.834 33.631C273.834 32.641 274.059 31.837 274.509 31.219C274.959 30.595 275.655 30.283 276.597 30.283C277.515 30.283 278.205 30.586 278.667 31.192C279.135 31.798 279.369 32.611 279.369 33.631C279.369 34.627 279.138 35.437 278.676 36.061C278.22 36.685 277.527 36.997 276.597 36.997ZM283.336 38.5H285.226V32.425C285.226 31.765 285.406 31.231 285.766 30.823C286.132 30.415 286.612 30.211 287.206 30.211C287.806 30.211 288.283 30.415 288.637 30.823C288.997 31.225 289.177 31.777 289.177 32.479L289.168 38.5H291.049L291.058 32.425C291.058 31.693 291.253 31.141 291.643 30.769C292.039 30.397 292.504 30.211 293.038 30.211C293.626 30.211 294.1 30.409 294.46 30.805C294.82 31.201 295 31.747 295 32.443L294.991 38.5H296.872L296.881 31.993C296.881 30.949 296.59 30.112 296.008 29.482C295.432 28.852 294.622 28.537 293.578 28.537C292.942 28.537 292.366 28.678 291.85 28.96C291.334 29.236 290.926 29.62 290.626 30.112C290.368 29.62 289.999 29.236 289.519 28.96C289.045 28.678 288.472 28.537 287.8 28.537C287.218 28.537 286.684 28.654 286.198 28.888C285.718 29.116 285.322 29.428 285.01 29.824V28.78H283.336V38.5Z" fill="white"/>
</svg>
