<svg width="294" height="22" viewBox="0 0 294 22" fill="none" xmlns="http://www.w3.org/2000/svg">
<path fill-rule="evenodd" clip-rule="evenodd" d="M15.7559 13.155C15.4863 13.0202 14.1645 12.3706 13.9184 12.2801C13.6723 12.1905 13.4932 12.1462 13.3132 12.4158C13.134 12.6836 12.6192 13.2898 12.4627 13.4689C12.3053 13.649 12.1488 13.6707 11.8801 13.5368C11.6113 13.4011 10.7446 13.1179 9.71774 12.2023C8.91886 11.4894 8.37874 10.6091 8.22222 10.3394C8.0657 10.0707 8.20503 9.92508 8.33983 9.79118C8.46107 9.67085 8.60854 9.47724 8.74334 9.32072C8.87815 9.16329 8.92248 9.05111 9.01205 8.87107C9.10252 8.69193 9.05729 8.53541 8.98943 8.40061C8.92248 8.2658 8.38507 6.94217 8.1607 6.40386C7.94265 5.88002 7.72099 5.95149 7.55633 5.94244C7.39891 5.93521 7.21977 5.9334 7.04064 5.9334C6.8615 5.9334 6.57017 6.00035 6.32409 6.26996C6.07709 6.53866 5.38316 7.18917 5.38316 8.51279C5.38316 9.83551 6.3458 11.1139 6.48061 11.2939C6.61541 11.4731 8.37602 14.1891 11.073 15.3535C11.7154 15.6303 12.2157 15.7959 12.6056 15.9189C13.2498 16.1243 13.8361 16.0954 14.2993 16.0257C14.815 15.9488 15.8898 15.3752 16.1142 14.7473C16.3377 14.1194 16.3377 13.5811 16.2707 13.4689C16.2038 13.3567 16.0246 13.2898 15.755 13.155H15.7559ZM10.8505 19.8527H10.8468C9.24496 19.853 7.67248 19.4224 6.29423 18.606L5.96853 18.4124L2.58301 19.3008L3.48684 16.0004L3.27423 15.662C2.37867 14.2364 1.90473 12.5866 1.90718 10.9031C1.90899 5.9723 5.92057 1.96071 10.8541 1.96071C13.2426 1.96071 15.4881 2.89259 17.1764 4.58263C18.0091 5.41189 18.6691 6.39804 19.1182 7.48402C19.5673 8.57 19.7966 9.73425 19.7929 10.9094C19.791 15.8402 15.7795 19.8527 10.8505 19.8527ZM18.4611 3.29881C17.4642 2.29539 16.2782 1.49978 14.9716 0.958088C13.665 0.416391 12.264 0.139378 10.8496 0.143103C4.91994 0.143103 0.0922828 4.96986 0.0904733 10.9022C0.0895686 12.7985 0.584458 14.6496 1.52629 16.2808L0 21.8567L5.70344 20.3603C7.28118 21.2199 9.04923 21.6703 10.8459 21.6703H10.8505C16.7801 21.6703 21.6077 16.8436 21.6096 10.9103C21.6139 9.49649 21.3379 8.0958 20.7975 6.7893C20.2571 5.48281 19.463 4.29644 18.4611 3.29881Z" fill="#959595"/>
<path fill-rule="evenodd" clip-rule="evenodd" d="M75.4664 0.143066C69.4726 0.143066 64.6096 5.00602 64.6096 10.9999C64.6096 16.9938 69.4726 21.8567 75.4664 21.8567C81.4485 21.8567 86.3233 16.9938 86.3233 10.9999C86.3233 5.00602 81.4485 0.143066 75.4664 0.143066ZM82.6374 5.14715C83.9741 6.77508 84.7138 8.81124 84.7336 10.9176C84.4278 10.8587 81.3662 10.2345 78.2811 10.6235C78.2096 10.4697 78.1508 10.305 78.0802 10.1404C77.8883 9.68748 77.6844 9.23978 77.4686 8.79776C80.8831 7.40809 82.4374 5.40681 82.6374 5.14715ZM75.4664 1.74535C77.8215 1.74535 79.9765 2.62747 81.6132 4.07595C81.4485 4.31118 80.0471 6.18398 76.7503 7.41985C75.2303 4.62965 73.5475 2.34429 73.2878 1.99144C74.002 1.82469 74.7331 1.7418 75.4664 1.74445V1.74535ZM71.5218 2.61571C71.7688 2.94594 73.4172 5.24215 74.9598 7.97355C70.6261 9.12799 66.7991 9.10446 66.3874 9.10446C66.9882 6.23103 68.9315 3.84072 71.5218 2.61571ZM66.1875 11.0116V10.7294C66.5883 10.7411 71.0857 10.7999 75.7143 9.41027C75.9849 9.92868 76.2318 10.4579 76.4671 10.9881C76.3495 11.0234 76.2201 11.0587 76.1025 11.094C71.3218 12.6365 68.7777 16.8517 68.566 17.2055C67.0347 15.5059 66.1873 13.2993 66.1875 11.0116ZM75.4664 20.2788C73.3231 20.2788 71.3454 19.5487 69.7793 18.3246C69.9439 17.9826 71.8276 14.3555 77.0561 12.5307C77.0796 12.5189 77.0922 12.5189 77.1149 12.5072C78.4222 15.8864 78.9515 18.7245 79.0935 19.537C77.9744 20.0201 76.7503 20.2788 75.4664 20.2788ZM80.6361 18.6892C80.542 18.1238 80.0471 15.4159 78.8339 12.0829C81.7426 11.6242 84.2858 12.3778 84.6043 12.4837C84.2035 15.0621 82.7197 17.2878 80.6361 18.6892Z" fill="#959595"/>
<path d="M150.443 0H130.203C129.716 0 129.323 0.39325 129.323 0.88V21.12C129.323 21.6068 129.716 22 130.203 22H150.443C150.93 22 151.323 21.6068 151.323 21.12V0.88C151.323 0.39325 150.93 0 150.443 0ZM135.849 18.7468H132.585V8.24725H135.849V18.7468ZM134.218 6.81175C133.844 6.81175 133.478 6.70079 133.167 6.49289C132.856 6.28499 132.613 5.9895 132.47 5.64379C132.327 5.29807 132.29 4.91765 132.363 4.55064C132.436 4.18363 132.616 3.84651 132.88 3.5819C133.145 3.3173 133.482 3.13711 133.849 3.0641C134.216 2.9911 134.597 3.02857 134.942 3.17177C135.288 3.31497 135.583 3.55747 135.791 3.86861C135.999 4.17975 136.11 4.54555 136.11 4.91975C136.107 5.96475 135.26 6.81175 134.218 6.81175ZM148.07 18.7468H144.808V13.64C144.808 12.4218 144.786 10.857 143.112 10.857C141.415 10.857 141.154 12.1825 141.154 13.552V18.7468H137.895V8.24725H141.024V9.68275H141.068C141.503 8.85775 142.567 7.986 144.157 7.986C147.462 7.986 148.07 10.1612 148.07 12.9882V18.7468Z" fill="#959595"/>
<path d="M221.033 2.7187C220.051 3.15395 218.996 3.44804 217.887 3.58096C219.031 2.89608 219.888 1.81817 220.296 0.54834C219.22 1.18708 218.044 1.63669 216.816 1.87761C215.991 0.996369 214.898 0.412267 213.706 0.215991C212.515 0.0197149 211.292 0.222246 210.228 0.792141C209.163 1.36204 208.317 2.26741 207.82 3.3677C207.323 4.46798 207.203 5.70162 207.478 6.87709C205.299 6.76768 203.168 6.20133 201.222 5.2148C199.276 4.22826 197.559 2.84358 196.183 1.15063C195.713 1.96231 195.442 2.90339 195.442 3.90563C195.441 4.80789 195.664 5.69632 196.089 6.49211C196.514 7.28789 197.129 7.96643 197.879 8.46751C197.009 8.43982 196.158 8.20469 195.397 7.7817V7.85228C195.397 9.11772 195.835 10.3442 196.636 11.3237C197.437 12.3031 198.553 12.9752 199.793 13.2258C198.986 13.4443 198.14 13.4765 197.318 13.3199C197.668 14.4088 198.35 15.3609 199.268 16.0431C200.186 16.7253 201.294 17.1033 202.438 17.1243C200.497 18.6481 198.099 19.4747 195.631 19.4711C195.194 19.4712 194.757 19.4457 194.323 19.3946C196.828 21.0052 199.744 21.86 202.722 21.8567C212.804 21.8567 218.315 13.507 218.315 6.26539C218.315 6.03012 218.309 5.7925 218.298 5.55723C219.37 4.78198 220.296 3.82199 221.031 2.72223L221.033 2.7187Z" fill="#959595"/>
<path d="M282.968 3.19067H290.204V4.92648H282.968V3.19067ZM275.717 10.0586C277.316 9.30185 278.154 8.15063 278.154 6.37179C278.154 2.85356 275.506 2 272.449 2H264.033V19.6593H272.684C275.927 19.6593 278.97 18.1172 278.97 14.5308C278.97 12.3144 277.911 10.6754 275.717 10.0586ZM267.958 5.01255H271.64C273.058 5.01255 274.331 5.40347 274.331 7.03168C274.331 8.53078 273.341 9.13329 271.937 9.13329H267.958V5.01255ZM272.148 16.6611H267.954V11.798H272.231C273.958 11.798 275.049 12.5117 275.049 14.3192C275.049 16.098 273.747 16.6611 272.148 16.6611ZM293.033 13.4513C293.033 9.66766 290.795 6.51524 286.747 6.51524C282.812 6.51524 280.135 9.44531 280.135 13.2863C280.135 17.2672 282.67 20 286.747 20C289.834 20 291.833 18.6264 292.794 15.6964H289.664C289.323 16.7902 287.937 17.364 286.86 17.364C284.778 17.364 283.69 16.159 283.69 14.1112H293.008C293.019 13.8996 293.033 13.6772 293.033 13.4513ZM283.69 11.8948C283.802 10.2128 284.937 9.16198 286.635 9.16198C288.42 9.16198 289.312 10.1984 289.468 11.8948H283.69Z" fill="#959595"/>
</svg>
